<?xml version="1.0" standalone="no"?>
<!DOCTYPE svg PUBLIC "-//W3C//DTD SVG 20010904//EN"
 "http://www.w3.org/TR/2001/REC-SVG-20010904/DTD/svg10.dtd">
<svg version="1.0" xmlns="http://www.w3.org/2000/svg"
 width="192.000000pt" height="199.000000pt" viewBox="0 0 192.000000 199.000000"
 preserveAspectRatio="xMidYMid meet">

<g transform="translate(0.000000,199.000000) scale(0.100000,-0.100000)"
fill="#000000" stroke="none">
<path d="M619 1925 c-96 -35 -206 -106 -298 -191 -48 -44 -61 -62 -61 -86 0
-18 4 -27 11 -23 6 4 8 14 5 22 -3 8 -1 11 4 8 6 -3 10 1 10 9 0 9 5 16 10 16
6 0 15 12 21 27 19 52 34 9 34 -102 0 -57 3 -99 6 -93 4 6 7 -34 6 -89 -2 -79
-4 -97 -14 -84 -10 14 -14 14 -25 2 -9 -10 -9 -12 0 -7 8 5 12 1 12 -11 0 -11
5 -24 12 -31 20 -20 -2 -14 -49 14 -24 14 -41 29 -38 34 3 4 -3 6 -12 4 -10
-3 -34 9 -56 27 -35 29 -37 33 -22 48 8 10 12 21 8 25 -11 11 18 26 50 26 15
0 27 4 27 9 0 10 -34 21 -68 21 -19 0 -22 4 -17 28 3 15 2 20 -2 12 -3 -8 -14
-20 -23 -27 -27 -19 -88 -162 -115 -267 -24 -94 -32 -166 -19 -166 3 0 20 11
36 26 17 14 37 23 44 20 9 -3 17 9 25 37 18 68 28 87 44 87 8 0 15 7 15 15 0
21 34 19 54 -4 10 -11 28 -22 40 -25 12 -3 28 -17 36 -31 21 -39 39 -27 35 23
-1 12 2 22 7 22 4 0 7 -44 6 -97 -1 -86 -2 -91 -8 -43 -4 30 -7 45 -8 33 -1
-15 -8 -23 -21 -23 -11 0 -27 -3 -37 -7 -11 -4 -15 -3 -11 4 4 6 1 13 -7 16
-11 5 -15 -8 -18 -56 -4 -89 1 -127 18 -127 9 0 14 11 14 33 0 46 12 62 38 48
15 -8 22 -8 25 2 3 6 6 -13 6 -43 1 -52 -1 -56 -21 -55 -13 0 -24 -4 -25 -9
-1 -5 -7 -13 -15 -17 -9 -6 -6 -9 10 -9 13 0 20 4 17 10 -3 5 0 10 8 10 18 0
29 -24 21 -45 -4 -11 -17 -14 -40 -11 -48 5 -42 -10 7 -18 l40 -6 -2 -80 c-1
-48 -6 -77 -12 -73 -5 3 -12 1 -16 -5 -4 -7 -59 -14 -134 -18 -70 -4 -127 -9
-127 -11 0 -2 13 -35 30 -74 88 -208 274 -397 485 -495 102 -47 108 -46 104
19 -1 28 -1 106 -1 172 l2 120 53 16 c56 18 182 62 367 130 63 23 157 56 208
73 51 17 91 34 88 36 -2 3 11 6 31 7 19 1 40 6 47 12 7 6 66 28 132 51 65 22
113 40 107 40 -7 0 -13 4 -13 9 0 5 10 7 22 3 16 -4 19 -2 13 8 -5 9 -4 11 4
6 13 -8 119 13 127 25 5 9 -37 6 -54 -5 -7 -4 -16 -5 -21 -2 -5 4 -12 0 -14
-6 -4 -10 -7 -10 -15 0 -6 9 -15 10 -35 3 -22 -9 -27 -8 -27 4 0 11 -7 14 -27
10 -23 -4 -25 -4 -8 4 28 13 21 13 -96 -6 -94 -15 -126 -18 -236 -22 -17 0
-39 -8 -48 -17 -15 -15 -25 -15 -70 1 -16 5 -17 5 -5 -4 11 -8 12 -11 2 -11
-7 0 -10 -5 -6 -11 5 -8 -6 -10 -34 -7 -22 2 -38 0 -36 -3 2 -4 -22 -10 -54
-13 -31 -4 -78 -9 -104 -12 -43 -5 -46 -4 -41 15 6 25 13 24 -107 6 -52 -8
-107 -15 -122 -15 -27 0 -28 2 -28 53 l0 53 -62 -3 c-35 -2 -78 -5 -95 -6
l-33 -3 0 106 c0 71 -4 110 -12 119 -11 11 -10 13 5 8 13 -5 17 -1 17 19 0 23
3 25 26 20 20 -5 27 -3 31 13 6 25 50 33 86 14 16 -8 31 -13 33 -10 2 2 4 147
3 323 0 175 0 343 1 372 1 61 -9 142 -19 141 -3 0 -22 -6 -42 -14z m-172 -547
c-2 -13 -4 -3 -4 22 0 25 2 35 4 23 2 -13 2 -33 0 -45z m141 -65 l-2 -58 -3
52 -4 52 -57 4 -57 3 63 2 62 2 -2 -57z m-28 -8 c0 -13 -6 -26 -12 -28 -8 -4
-7 -6 3 -6 16 -1 29 -20 29 -42 0 -5 -25 -9 -56 -9 -40 0 -54 3 -51 13 2 6 8
11 13 10 5 -1 7 18 6 42 -4 39 -2 44 20 47 35 6 48 -2 48 -27z m-40 -189 c0
-9 -30 -14 -35 -6 -4 6 3 10 14 10 12 0 21 -2 21 -4z m-50 -131 c0 -8 -7 -15
-15 -15 -26 0 -18 20 13 29 1 1 2 -6 2 -14z m10 -40 c0 -9 -6 -12 -15 -9 -8 4
-15 10 -15 15 0 5 7 9 15 9 8 0 15 -7 15 -15z m-174 -585 c-3 -56 -12 -58 -15
-5 -1 25 2 45 8 45 5 0 8 -18 7 -40z"/>
<path d="M506 1265 c4 -8 8 -15 10 -15 2 0 4 7 4 15 0 8 -4 15 -10 15 -5 0 -7
-7 -4 -15z"/>
<path d="M219 1613 c-13 -16 -12 -17 4 -4 9 7 17 15 17 17 0 8 -8 3 -21 -13z"/>
<path d="M243 1573 c-17 -6 -17 -29 0 -36 8 -3 13 4 13 19 0 13 0 24 0 23 -1
0 -7 -3 -13 -6z"/>
<path d="M600 1100 c0 -5 7 -10 15 -10 8 0 15 5 15 10 0 6 -7 10 -15 10 -8 0
-15 -4 -15 -10z"/>
<path d="M646 1045 c-3 -9 0 -15 10 -15 8 0 13 4 10 9 -4 5 0 12 6 14 8 4 7 6
-3 6 -9 1 -19 -6 -23 -14z"/>
<path d="M0 977 c1 -47 18 -172 30 -218 10 -36 14 -39 45 -39 41 0 65 9 65 23
0 7 -4 7 -12 -1 -7 -7 -17 -12 -22 -12 -6 0 -4 5 4 10 13 9 13 11 0 21 -12 8
-10 9 8 4 19 -6 22 -3 22 24 0 25 -4 31 -21 31 -11 0 -17 -4 -14 -10 4 -6 -1
-7 -11 -3 -15 6 -15 7 1 16 9 5 45 12 78 15 34 3 68 12 76 20 13 13 10 14 -26
7 -26 -4 -43 -2 -48 4 -10 16 -23 13 -28 -6 -3 -10 -5 -4 -4 12 2 79 0 85 -38
85 -22 0 -38 6 -41 14 -3 8 -19 19 -35 25 -28 10 -29 9 -29 -22z m57 -163 c-3
-3 -12 -4 -19 -1 -8 3 -5 6 6 6 11 1 17 -2 13 -5z"/>
<path d="M213 933 c-20 -8 -15 -23 7 -23 11 0 20 7 20 15 0 15 -6 17 -27 8z"/>
<path d="M245 790 c-3 -5 -1 -10 4 -10 6 0 11 5 11 10 0 6 -2 10 -4 10 -3 0
-8 -4 -11 -10z"/>
<path d="M1844 780 c-7 -7 -28 -12 -47 -13 -20 0 -34 -4 -31 -8 2 -5 -12 -11
-33 -15 -21 -4 -32 -9 -25 -11 6 -3 12 -10 12 -17 0 -15 30 -17 47 -4 16 13
28 -49 17 -94 -9 -39 -6 -60 9 -70 14 -9 22 -1 32 30 4 13 2 22 -5 22 -6 0
-15 -10 -20 -22 -8 -21 -9 -21 -9 -3 0 11 6 31 14 45 8 14 14 19 15 13 0 -20
28 -15 33 5 13 45 15 70 9 110 -5 33 -10 40 -18 32z m-7 -26 c-3 -3 -12 -4
-19 -1 -8 3 -5 6 6 6 11 1 17 -2 13 -5z"/>
<path d="M208 753 c7 -3 16 -2 19 1 4 3 -2 6 -13 5 -11 0 -14 -3 -6 -6z"/>
<path d="M198 723 c7 -3 16 -2 19 1 4 3 -2 6 -13 5 -11 0 -14 -3 -6 -6z"/>
<path d="M45 700 c3 -5 22 -10 41 -10 19 0 34 5 34 10 0 6 -18 10 -41 10 -24
0 -38 -4 -34 -10z"/>
<path d="M242 694 c-11 -12 -9 -14 7 -14 23 0 36 16 18 23 -6 2 -18 -2 -25 -9z"/>
<path d="M87 673 c24 -2 62 -2 85 0 24 2 5 4 -42 4 -47 0 -66 -2 -43 -4z"/>
<path d="M1420 641 c-8 -5 -39 -17 -69 -27 -52 -17 -53 -17 -30 -30 13 -7 31
-13 39 -13 8 0 2 6 -15 13 -28 12 -25 12 38 10 83 -4 89 -7 77 -40 -14 -35 6
-22 26 19 16 30 16 31 -12 54 -32 26 -33 26 -54 14z"/>
<path d="M1611 567 c-22 -12 -83 -47 -133 -78 -51 -31 -176 -107 -278 -168
-203 -122 -450 -282 -450 -292 0 -20 219 -34 323 -20 235 31 370 104 512 276
27 33 65 76 84 95 34 34 35 35 32 114 -1 44 -3 82 -5 84 -12 12 -50 7 -85 -11z"/>
</g>
</svg>
